<svg width="708" height="724" viewBox="0 0 708 724" fill="none" xmlns="http://www.w3.org/2000/svg">
<g filter="url(#filter0_f_2_2)">
<path d="M288 442C362.006 442 422 382.006 422 308C422 233.994 362.006 174 288 174C213.994 174 154 233.994 154 308C154 382.006 213.994 442 288 442Z" fill="#45872B"/>
</g>
<g filter="url(#filter1_f_2_2)">
<path d="M409 570C494.052 570 563 501.052 563 416C563 330.948 494.052 262 409 262C323.948 262 255 330.948 255 416C255 501.052 323.948 570 409 570Z" fill="#BA7108"/>
</g>
<g filter="url(#filter2_f_2_2)">
<circle cx="432.5" cy="291.5" r="137.5" fill="#173E64" fill-opacity="0.9"/>
</g>
<defs>
<filter id="filter0_f_2_2" x="0" y="20" width="576" height="576" filterUnits="userSpaceOnUse" color-interpolation-filters="sRGB">
<feFlood flood-opacity="0" result="BackgroundImageFix"/>
<feBlend mode="normal" in="SourceGraphic" in2="BackgroundImageFix" result="shape"/>
<feGaussianBlur stdDeviation="77" result="effect1_foregroundBlur_2_2"/>
</filter>
<filter id="filter1_f_2_2" x="101" y="108" width="616" height="616" filterUnits="userSpaceOnUse" color-interpolation-filters="sRGB">
<feFlood flood-opacity="0" result="BackgroundImageFix"/>
<feBlend mode="normal" in="SourceGraphic" in2="BackgroundImageFix" result="shape"/>
<feGaussianBlur stdDeviation="77" result="effect1_foregroundBlur_2_2"/>
</filter>
<filter id="filter2_f_2_2" x="141" y="0" width="583" height="583" filterUnits="userSpaceOnUse" color-interpolation-filters="sRGB">
<feFlood flood-opacity="0" result="BackgroundImageFix"/>
<feBlend mode="normal" in="SourceGraphic" in2="BackgroundImageFix" result="shape"/>
<feGaussianBlur stdDeviation="77" result="effect1_foregroundBlur_2_2"/>
</filter>
</defs>
</svg>
